{
	"asset":{
		"generator":"Khronos glTF Blender I/O v4.3.47",
		"version":"2.0"
	},
	"scene":0,
	"scenes":[
		{
			"name":"Scene",
			"nodes":[
				0
			]
		}
	],
	"nodes":[
		{
			"mesh":0,
			"name":"rateau",
			"rotation":[
				0.7071068286895752,
				0,
				0,
				0.7071068286895752
			]
		}
	],
	"materials":[
		{
			"doubleSided":true,
			"name":"Material.001",
			"pbrMetallicRoughness":{
				"baseColorFactor":[
					1,
					0.5,
					0.5,
					1
				],
				"metallicFactor":0,
				"roughnessFactor":0.4000000059604645
			}
		}
	],
	"meshes":[
		{
			"name":"rateau",
			"primitives":[
				{
					"attributes":{
						"POSITION":0,
						"NORMAL":1
					},
					"indices":2,
					"material":0
				}
			]
		}
	],
	"accessors":[
		{
			"bufferView":0,
			"componentType":5126,
			"count":7659,
			"max":[
				120.47132873535156,
				5,
				232.44052124023438
			],
			"min":[
				-120.47132873535156,
				0,
				-104.85665893554688
			],
			"type":"VEC3"
		},
		{
			"bufferView":1,
			"componentType":5126,
			"count":7659,
			"type":"VEC3"
		},
		{
			"bufferView":2,
			"componentType":5123,
			"count":14874,
			"type":"SCALAR"
		}
	],
	"bufferViews":[
		{
			"buffer":0,
			"byteLength":91908,
			"byteOffset":0,
			"target":34962
		},
		{
			"buffer":0,
			"byteLength":91908,
			"byteOffset":91908,
			"target":34962
		},
		{
			"buffer":0,
			"byteLength":29748,
			"byteOffset":183816,
			"target":34963
		}
	],
	"buffers":[
		{
			"byteLength":213564,
			"uri":"xxx.bin"
		}
	]
}
